<svg width="100%" height="100%" viewBox="0 0 200 200" version="1.1"
    xmlns="http://www.w3.org/2000/svg" xmlns:xlink="http://www.w3.org/1999/xlink"
    xml:space="preserve" xmlns:serif="http://www.serif.com/"
    style="fill-rule:evenodd;clip-rule:evenodd;stroke-linejoin:round;stroke-miterlimit:2;">
    <g transform="matrix(4.37871,0,0,4.33085,-0.566205,-0.215585)">
        <ellipse cx="22.967" cy="23.14" rx="22.838" ry="23.09" style="fill:rgb(51,154,240);"/>
    </g>
    <g transform="matrix(3.85633,0,0,3.85633,11.3043,11.0879)">
        <path d="M39.292,24.006L42.167,24.006L42.167,29.756L39.292,29.756L39.292,24.006ZM34.5,24.006L37.375,24.006L37.375,29.756L34.5,29.756L34.5,24.006ZM32.583,24.006L28.098,24.006L32.583,28.491L32.583,24.006ZM27.792,15.669L30.724,15.669C32.737,15.669 34.5,17.087 34.5,19.598L34.5,22.09L37.375,22.09L37.375,18.946C37.375,15.477 34.308,12.89 30.724,12.89L27.792,12.89C25.837,12.89 24.246,11.011 24.246,9.056C24.246,7.101 25.837,5.702 27.792,5.702L27.792,2.827C24.269,2.827 21.371,5.726 21.371,9.248C21.371,12.77 24.269,15.669 27.792,15.669ZM36.129,8.155C37.318,6.986 38.046,5.376 38.046,3.594L35.171,3.594C35.171,5.549 33.58,7.14 31.625,7.14L31.625,10.015C35.918,10.015 39.292,13.522 39.292,17.815L39.292,22.09L42.167,22.09L42.167,17.796C42.167,13.541 39.713,9.861 36.129,8.155ZM6.536,7.887L3.833,10.59L17.25,24.006L3.833,24.006L3.833,29.756L23,29.756L36.417,43.173L39.119,40.47L6.536,7.887Z" style="fill:white;fill-rule:nonzero;"/>
    </g>
</svg>