<!-- Carbon Icons | translate -->
<svg width="46" height="46" fill="currentColor" viewBox="0 0 24 24"
  xmlns="http://www.w3.org/2000/svg">
  <path
    d="M20.887 21.75H22.5L18 10.5h-1.763l-4.5 11.25h1.613l1.2-3h5.137l1.2 3Zm-5.737-4.5 1.965-4.92 1.972 4.92H15.15Z"></path>
  <path
    d="M13.5 5.25v-1.5H8.25V1.5h-1.5v2.25H1.5v1.5h8.055a11.032 11.032 0 0 1-2.393 4.635A10.125 10.125 0 0 1 5.445 6.75H3.87a12.353 12.353 0 0 0 2.25 4.185A12.63 12.63 0 0 1 2.25 13.5l.563 1.395A13.854 13.854 0 0 0 7.147 12a12.69 12.69 0 0 0 4.32 2.88L12 13.5a10.86 10.86 0 0 1-3.84-2.527A13.23 13.23 0 0 0 11.1 5.25h2.4Z"></path>
</svg>