<!-- Carbon Icons | piggy-bank-slot -->
<svg role="img" aria-labelledby="savings-icon-text" width="46" height="46" fill="currentColor"
	viewBox="0 0 24 24"
	xmlns="http://www.w3.org/2000/svg">
	<path d="M15 8.25H9.75v1.5H15v-1.5Z"></path>
	<path
		d="M21.75 9.75h-1.515a4.334 4.334 0 0 0-1.485-3.11V3.75a.75.75 0 0 0-1.2-.6l-2.8 2.1h-3.5c-4.132 0-7.098 2.43-7.461 6H3.75A.75.75 0 0 1 3 10.5V9H1.5v1.5a2.253 2.253 0 0 0 2.25 2.25h.053a6.88 6.88 0 0 0 2.947 4.918v2.582a.75.75 0 0 0 .75.75h3a.75.75 0 0 0 .75-.75v-1.5h2.25v1.5a.75.75 0 0 0 .75.75h3a.75.75 0 0 0 .75-.75v-2.522A3.82 3.82 0 0 0 20.114 15h1.636a.75.75 0 0 0 .75-.75V10.5a.75.75 0 0 0-.75-.75ZM21 13.5h-2.157c-.229 2.065-.618 2.614-2.343 3.236V19.5H15v-2.25H9.75v2.25h-1.5v-2.717a5.26 5.26 0 0 1-3-4.783c0-3.627 3.014-5.25 6-5.25h4l2-1.5v2.082c1.814 1.395 1.434 2.39 1.514 3.918H21v2.25Z"></path>
</svg>